# xmcd
#
# Track frame offsets: 
#        150
#        13013
#        27059
#        43649
#        57723
#        72809
#        89513
#        102482
#        116720
#        132384
#        146265
#
# Disc length: 2222 seconds
#
# Revision: 0
# Processed by: cddbd v1.5.2PL0 Copyright (c) Steve Scherf et al.
# Submitted via: ExactAudioCopy v1.1
#
DISCID=9b08ac0b
DTITLE=Bart Kaëll - Onwaarschijnlijk Mooi
DYEAR=2019
DGENRE=Chanson
TTITLE0=Onwaarschijnlijk Mooi
TTITLE1=Droom In Kleuren
TTITLE2=Annelies Uit Sas Van Gent
TTITLE3=Het Draait Vanbinnen
TTITLE4=Ik Zeg Het Met Mijn Hart
TTITLE5=Ik Red Me Wel
TTITLE6='k Laat Me Verleiden
TTITLE7=Laat Me Liggen
TTITLE8=Vlucht Over Zee
TTITLE9=Ik Moet Je Nog Wat Zeggen
TTITLE10=Bart Kaëll and Luc Appermont - Avond
EXTD=
EXTT0=
EXTT1=
EXTT2=
EXTT3=
EXTT4=
EXTT5=
EXTT6=
EXTT7=
EXTT8=
EXTT9=
EXTT10=
PLAYORDER=
